<svg xmlns:xlink="http://www.w3.org/1999/xlink" width="637" xmlns="http://www.w3.org/2000/svg" height="637" id="screenshot-c21d5997-3201-80bc-8002-4cf41e30375b" viewBox="0 0 637 637" style="-webkit-print-color-adjust: exact;" fill="none" version="1.1"><g id="shape-c21d5997-3201-80bc-8002-4cf41e30375b" rx="0" ry="0"><g id="shape-c21d5997-3201-80bc-8002-4cf3c52774c4"><g class="fills" id="fills-c21d5997-3201-80bc-8002-4cf3c52774c4"><ellipse rx="318.5" ry="318.5" cx="318.5" cy="318.5" transform="matrix(1.000000, 0.000000, 0.000000, 1.000000, 0.000000, 0.000000)" style="fill: rgb(255, 255, 255); fill-opacity: 1;"/></g></g><g id="shape-c21d5997-3201-80bc-8002-4cf332891bc7" rx="0" ry="0"><g id="shape-c21d5997-3201-80bc-8002-4cf34e09802f"><g class="fills" id="fills-c21d5997-3201-80bc-8002-4cf34e09802f"><ellipse rx="142" ry="142" cx="379" cy="250" transform="matrix(1.000000, 0.000000, 0.000000, 1.000000, 0.000000, 0.000000)" style="fill: rgb(255, 255, 255); fill-opacity: 1;"/></g></g><g id="shape-c21d5997-3201-80bc-8002-4cf3188f0c0a"><g class="fills" id="fills-c21d5997-3201-80bc-8002-4cf3188f0c0a"><ellipse rx="142" ry="142" cx="379" cy="250" transform="matrix(1.000000, 0.000000, 0.000000, 1.000000, 0.000000, 0.000000)" style="fill: rgb(70, 210, 121); fill-opacity: 0.6;"/></g></g><g id="shape-c21d5997-3201-80bc-8002-4cf3078246f1"><g class="fills" id="fills-c21d5997-3201-80bc-8002-4cf3078246f1"><ellipse rx="92.5" ry="92.5" cx="378.5" cy="249.5" transform="matrix(1.000000, 0.000000, 0.000000, 1.000000, 0.000000, 0.000000)" style="fill: rgb(70, 210, 121); fill-opacity: 1;"/></g></g></g><g id="shape-c21d5997-3201-80bc-8002-4cf2ea764f3c" width="500" height="500" version="1.1" rx="0" ry="0" style="fill: rgb(0, 0, 0);"><g id="shape-c21d5997-3201-80bc-8002-4cf2ea79aeab" rx="0" ry="0" style="fill: rgb(0, 0, 0);"><g id="shape-c21d5997-3201-80bc-8002-4cf2ea79f670"><g class="fills" id="fills-c21d5997-3201-80bc-8002-4cf2ea79f670"><path rx="0" ry="0" d="M96.143,305.990L127.592,294.287C130.280,293.287,132.734,297.304,132.734,301.052L132.734,385.108C132.734,388.856,130.280,392.874,127.592,391.874L96.143,380.170C93.472,379.177,91.000,377.877,91.000,375.028L91.000,311.132C91.000,308.283,93.472,306.983,96.143,305.990ZZ" style="fill: rgb(255, 39, 39);"/></g></g><g id="shape-c21d5997-3201-80bc-8002-4cf2ea79f671"><g class="fills" id="fills-c21d5997-3201-80bc-8002-4cf2ea79f671"><path fill="none" stroke-linecap="round" stroke-linejoin="round" rx="0" ry="0" d="M173.363,343.078L173.363,487.212" style="fill: none;"/></g><g id="strokes-c21d5997-3201-80bc-8002-4cf2ea79f671" class="strokes"><g class="stroke-shape"><path stroke-linecap="round" stroke-linejoin="round" rx="0" ry="0" d="M173.363,343.078L173.363,487.212" style="fill: none; stroke-width: 35; stroke: rgb(255, 39, 39);"/></g></g></g><g id="shape-c21d5997-3201-80bc-8002-4cf2ea7a2495"><g class="fills" id="fills-c21d5997-3201-80bc-8002-4cf2ea7a2495"><path rx="0" ry="0" d="M173.363,388.332L173.363,297.824C293.184,297.824,413.004,223.258,413.004,223.258L413.004,462.898C413.004,462.898,293.184,388.332,173.363,388.332ZZ" style="fill: rgb(255, 39, 39);"/></g></g><g id="shape-c21d5997-3201-80bc-8002-4cf2ea7a2496"><g class="fills" id="fills-c21d5997-3201-80bc-8002-4cf2ea7a2496"><rect rx="0" ry="0" x="118.85280850000004" y="279.38316703160547" transform="matrix(0.000000, -1.000000, 1.000000, 0.000000, -169.714864, 516.441481)" width="109.02099999999996" height="127.39001000000007" style="fill: rgb(224, 0, 0);"/></g></g><g id="shape-c21d5997-3201-80bc-8002-4cf2ea7a4bc9"><g class="fills" id="fills-c21d5997-3201-80bc-8002-4cf2ea7a4bc9"><path color-rendering="auto" d="M412.736,205.002C402.802,205.152,394.868,213.322,395.009,223.256L395.009,462.896C394.911,469.392,398.320,475.436,403.929,478.712C409.538,481.988,416.478,481.988,422.087,478.712C427.696,475.436,431.105,469.392,431.007,462.896L431.007,223.256C431.076,218.391,429.172,213.705,425.730,210.267C422.289,206.828,417.601,204.929,412.736,205.002ZZ" image-rendering="auto" fill-rule="evenodd" style="text-decoration-style: solid; isolation: auto; text-transform: none; white-space: normal; text-decoration-line: none; text-indent: 0px; text-decoration-color: rgb(0, 0, 0); fill: rgb(224, 0, 0);" ry="0" rx="0" shape-rendering="auto" color="#000000"/></g></g></g></g></g></svg>