<?xml version="1.0" standalone="no"?>
<!DOCTYPE svg PUBLIC "-//W3C//DTD SVG 20010904//EN"
 "http://www.w3.org/TR/2001/REC-SVG-20010904/DTD/svg10.dtd">
<svg version="1.0" xmlns="http://www.w3.org/2000/svg"
 width="700.000000pt" height="700.000000pt" viewBox="0 0 700.000000 700.000000"
 preserveAspectRatio="xMidYMid meet">
<metadata>
Created by potrace 1.14, written by Peter Selinger 2001-2017
</metadata>
<g transform="translate(0.000000,700.000000) scale(0.100000,-0.100000)"
fill="#000000" stroke="none">
<path d="M3970 5803 c-86 -11 -270 -57 -354 -89 -364 -139 -658 -401 -836
-745 -168 -325 -216 -683 -140 -1046 11 -52 22 -98 25 -104 4 -5 0 -9 -9 -9
-8 0 -21 -3 -30 -6 -11 -4 -16 -1 -16 10 0 15 -64 16 -705 16 l-705 0 0 -68 0
-67 -77 -29 c-43 -15 -88 -35 -101 -42 l-22 -14 0 -380 0 -380 22 -14 c13 -7
58 -27 101 -42 l77 -29 0 -67 0 -68 255 0 255 0 0 -510 c0 -550 0 -551 53
-609 94 -102 267 -69 322 61 13 32 15 110 15 548 l0 510 255 0 c221 0 255 2
255 15 0 11 7 14 23 10 541 -118 960 -265 1490 -523 l217 -105 0 -84 c0 -63 5
-93 19 -121 71 -138 256 -150 346 -23 l30 43 3 478 3 479 96 46 c273 129 519
357 679 628 91 153 167 372 195 562 6 44 11 145 11 225 0 253 -48 455 -162
685 -160 323 -403 563 -725 716 -119 56 -194 82 -335 116 -89 21 -134 25 -300
28 -107 2 -211 1 -230 -2z"/>
</g>
</svg>
